<?xml version="1.0" encoding="UTF-8"?>
<svg width="332px" height="106px" viewBox="0 0 332 106" version="1.1" xmlns="http://www.w3.org/2000/svg" xmlns:xlink="http://www.w3.org/1999/xlink">
    <!-- Generator: Sketch 55.2 (78181) - https://sketchapp.com -->
    <title>logo</title>
    <desc>Created with Sketch.</desc>
    <defs>
        <path d="M79.9720982,26.4191616 L72.3449366,26.4191616 L72.8746006,23.558976 L80.5017622,23.558976 L79.9720982,26.4191616 Z M75.840719,21.44032 L62.4931862,21.44032 L62.9169174,18.5801344 L76.370383,18.5801344 L75.840719,21.44032 Z M81.7729558,31.2920704 L73.8279958,31.2920704 L74.251727,28.5378176 L82.3026198,28.5378176 L81.7729558,31.2920704 Z M62.599119,16.4614784 L60.0567318,16.4614784 L60.480463,13.7072256 L63.0228502,13.7072256 L62.599119,16.4614784 Z M73.8279958,31.2920704 L60.2685974,31.2920704 L60.6923286,28.5378176 L74.251727,28.5378176 L73.8279958,31.2920704 Z M60.0567318,16.4614784 L41.942223,16.4614784 L42.3659542,13.7072256 L60.480463,13.7072256 L60.0567318,16.4614784 Z M72.3449366,26.4191616 L31.0311446,26.4191616 L31.4548758,23.558976 L72.8746006,23.558976 L72.3449366,26.4191616 Z M62.4931862,21.44032 L27.9590934,21.44032 L28.3828246,18.5801344 L62.9169174,18.5801344 L62.4931862,21.44032 Z M74.4635926,51.101504 L68.8491542,51.101504 L69.2728854,48.2413184 L74.8873238,48.2413184 L74.4635926,51.101504 Z M78.7009046,56.0803456 L72.8746006,56.0803456 L73.2983318,53.22016 L79.1246358,53.22016 L78.7009046,56.0803456 Z M79.548367,60.9532544 L74.781391,60.9532544 L75.2051222,58.1990016 L79.9720982,58.1990016 L79.548367,60.9532544 Z M40.353231,31.2920704 L32.408271,31.2920704 L32.937935,28.5378176 L40.7769622,28.5378176 L40.353231,31.2920704 Z M31.0311446,26.4191616 L22.9802518,26.4191616 L23.5099158,23.558976 L31.4548758,23.558976 L31.0311446,26.4191616 Z M78.7009046,65.932096 L58.1499414,65.932096 L58.5736726,63.0719104 L79.1246358,63.0719104 L78.7009046,65.932096 Z M66.9423638,46.1226624 L26.581967,46.1226624 L27.0056982,43.3684096 L67.366095,43.3684096 L66.9423638,46.1226624 Z M74.781391,60.9532544 L49.887183,60.9532544 L50.3109142,58.1990016 L75.2051222,58.1990016 L74.781391,60.9532544 Z M38.0227094,36.270912 L30.9252118,36.270912 L31.348943,33.4107264 L38.4464406,33.4107264 L38.0227094,36.270912 Z M68.8491542,51.101504 L27.5353622,51.101504 L27.9590934,48.2413184 L69.2728854,48.2413184 L68.8491542,51.101504 Z M32.408271,31.2920704 L19.8022678,31.2920704 L20.225999,28.5378176 L32.937935,28.5378176 L32.408271,31.2920704 Z M72.8746006,56.0803456 L31.4548758,56.0803456 L31.9845398,53.22016 L73.2983318,53.22016 L72.8746006,56.0803456 Z M77.1119126,70.9109376 L58.2558742,70.9109376 L58.6796054,68.050752 L77.5356438,68.050752 L77.1119126,70.9109376 Z M46.2854678,41.2497536 L19.3785366,41.2497536 L19.8022678,38.389568 L46.709199,38.389568 L46.2854678,41.2497536 Z M30.9252118,36.270912 L17.3658134,36.270912 L17.7895446,33.4107264 L31.348943,33.4107264 L30.9252118,36.270912 Z M73.8279958,75.7838464 L55.2897558,75.7838464 L55.713487,73.0295936 L74.3576598,73.0295936 L73.8279958,75.7838464 Z M58.2558742,70.9109376 L56.4550166,70.9109376 L56.8787478,68.050752 L58.6796054,68.050752 L58.2558742,70.9109376 Z M68.955087,80.762688 L66.0949014,80.762688 L66.5186326,77.9025024 L69.3788182,77.9025024 L68.955087,80.762688 Z M19.3785366,41.2497536 L16.518351,41.2497536 L16.9420822,38.389568 L19.8022678,38.389568 L19.3785366,41.2497536 Z M26.581967,46.1226624 L17.4717462,46.1226624 L17.8954774,43.3684096 L27.0056982,43.3684096 L26.581967,46.1226624 Z M31.4548758,56.0803456 L29.9718166,56.0803456 L30.3955478,53.22016 L31.9845398,53.22016 L31.4548758,56.0803456 Z M27.5353622,51.101504 L20.755663,51.101504 L21.285327,48.2413184 L27.9590934,48.2413184 L27.5353622,51.101504 Z M66.0949014,80.762688 L24.7811094,80.762688 L25.2048406,77.9025024 L66.5186326,77.9025024 L66.0949014,80.762688 Z M55.2897558,75.7838464 L13.870031,75.7838464 L14.2937622,73.0295936 L55.713487,73.0295936 L55.2897558,75.7838464 Z M59.8448662,85.7415296 L22.0268566,85.7415296 L22.4505878,82.881344 L60.3745302,82.881344 L59.8448662,85.7415296 Z M30.0777494,70.9109376 L16.8361494,70.9109376 L17.3658134,68.050752 L30.5014806,68.050752 L30.0777494,70.9109376 Z M16.8361494,70.9109376 L6.8784662,70.9109376 L7.4081302,68.050752 L17.3658134,68.050752 L16.8361494,70.9109376 Z M24.7811094,80.762688 L13.6581654,80.762688 L14.0818966,77.9025024 L25.2048406,77.9025024 L24.7811094,80.762688 Z M13.870031,75.7838464 L10.2683158,75.7838464 L10.692047,73.0295936 L14.2937622,73.0295936 L13.870031,75.7838464 Z M116.032196,21.1225216 L108.299101,21.1225216 L108.722833,18.262336 L116.455927,18.262336 L116.032196,21.1225216 Z M115.396599,25.9954304 L113.066077,25.9954304 L113.489809,23.2411776 L115.82033,23.2411776 L115.396599,25.9954304 Z M108.299101,21.1225216 L99.0829479,21.1225216 L99.6126119,18.262336 L108.722833,18.262336 L108.299101,21.1225216 Z M113.066077,25.9954304 L98.1295527,25.9954304 L98.5532839,23.2411776 L113.489809,23.2411776 L113.066077,25.9954304 Z M114.337271,30.974272 L98.8710823,30.974272 L99.2948135,28.1140864 L114.761002,28.1140864 L114.337271,30.974272 Z M126.095812,40.8260224 L104.273655,40.8260224 L104.697386,38.0717696 L126.519543,38.0717696 L126.095812,40.8260224 Z M127.049207,35.9531136 L86.5828775,35.9531136 L87.0066087,33.092928 L127.472938,33.092928 L127.049207,35.9531136 Z M98.8710823,30.974272 L96.5405607,30.974272 L96.9642919,28.1140864 L99.2948135,28.1140864 L98.8710823,30.974272 Z M125.566148,45.804864 L98.4473511,45.804864 L98.8710823,42.9446784 L125.989879,42.9446784 L125.566148,45.804864 Z M104.273655,40.8260224 L83.6167591,40.8260224 L84.0404903,38.0717696 L104.697386,38.0717696 L104.273655,40.8260224 Z M111.26522,50.7837056 L91.9854503,50.7837056 L92.4091815,47.92352 L111.688951,47.92352 L111.26522,50.7837056 Z M86.5828775,35.9531136 L84.3582887,35.9531136 L84.7820199,33.092928 L87.0066087,33.092928 L86.5828775,35.9531136 Z M98.4473511,45.804864 L83.7226919,45.804864 L84.1464231,42.9446784 L98.8710823,42.9446784 L98.4473511,45.804864 Z M110.52369,55.6566144 L91.0320551,55.6566144 L91.4557863,52.9023616 L111.053354,52.9023616 L110.52369,55.6566144 Z M109.782161,60.635456 L98.2354855,60.635456 L98.7651495,57.7752704 L110.205892,57.7752704 L109.782161,60.635456 Z M120.905105,80.4448896 L112.112682,80.4448896 L112.536413,77.584704 L121.328836,77.584704 L120.905105,80.4448896 Z M98.2354855,60.635456 L90.2905255,60.635456 L90.7142567,57.7752704 L98.7651495,57.7752704 L98.2354855,60.635456 Z M109.252497,65.6142976 L89.4430631,65.6142976 L89.9727271,62.754112 L109.676228,62.754112 L109.252497,65.6142976 Z M121.646634,75.466048 L89.7608615,75.466048 L90.1845927,72.6058624 L122.070365,72.6058624 L121.646634,75.466048 Z M108.193169,70.4872064 L88.8074663,70.4872064 L89.2311975,67.7329536 L108.6169,67.7329536 L108.193169,70.4872064 Z M120.057642,85.3177984 L94.5278375,85.3177984 L94.9515687,82.5635456 L120.481373,82.5635456 L120.057642,85.3177984 Z M112.112682,80.4448896 L89.5489959,80.4448896 L90.0786599,77.584704 L112.536413,77.584704 L112.112682,80.4448896 Z M89.7608615,75.466048 L88.7015335,75.466048 L89.1252647,72.6058624 L90.1845927,72.6058624 L89.7608615,75.466048 Z M180.482284,40.8260224 L171.689862,40.8260224 L172.113593,38.0717696 L180.906015,38.0717696 L180.482284,40.8260224 Z M183.660268,45.804864 L165.863558,45.804864 L166.287289,42.9446784 L184.189932,42.9446784 L183.660268,45.804864 Z M174.550047,35.9531136 L153.893151,35.9531136 L154.316882,33.092928 L174.973778,33.092928 L174.550047,35.9531136 Z M185.355193,50.7837056 L165.757625,50.7837056 L166.181356,47.92352 L185.778924,47.92352 L185.355193,50.7837056 Z M165.863558,45.804864 L164.80423,45.804864 L165.333894,42.9446784 L166.287289,42.9446784 L165.863558,45.804864 Z M185.461126,55.6566144 L165.863558,55.6566144 L166.287289,52.9023616 L185.99079,52.9023616 L185.461126,55.6566144 Z M185.567058,60.635456 L165.757625,60.635456 L166.181356,57.7752704 L186.096722,57.7752704 L185.567058,60.635456 Z M153.893151,35.9531136 L142.452409,35.9531136 L142.982073,33.092928 L154.316882,33.092928 L153.893151,35.9531136 Z M171.689862,40.8260224 L135.143046,40.8260224 L135.566777,38.0717696 L172.113593,38.0717696 L171.689862,40.8260224 Z M183.872134,65.6142976 L164.380498,65.6142976 L164.910162,62.754112 L184.401798,62.754112 L183.872134,65.6142976 Z M165.757625,60.635456 L165.122028,60.635456 L165.545759,57.7752704 L166.181356,57.7752704 L165.757625,60.635456 Z M181.647545,70.4872064 L162.685574,70.4872064 L163.215238,67.7329536 L182.071276,67.7329536 L181.647545,70.4872064 Z M149.867705,45.804864 L130.164204,45.804864 L130.693868,42.9446784 L150.291436,42.9446784 L149.867705,45.804864 Z M178.363628,75.466048 L157.706732,75.466048 L158.130463,72.6058624 L178.787359,72.6058624 L178.363628,75.466048 Z M146.583788,50.7837056 L126.98622,50.7837056 L127.409951,47.92352 L147.007519,47.92352 L146.583788,50.7837056 Z M145.100729,55.6566144 L125.397228,55.6566144 L125.820959,52.9023616 L145.52446,52.9023616 L145.100729,55.6566144 Z M163.32117,85.3177984 L158.448262,85.3177984 L158.871993,82.5635456 L163.744902,82.5635456 L163.32117,85.3177984 Z M172.537324,80.4448896 L138.109164,80.4448896 L138.638828,77.584704 L172.961055,77.584704 L172.537324,80.4448896 Z M144.253266,60.635456 L124.3379,60.635456 L124.761631,57.7752704 L144.676998,57.7752704 L144.253266,60.635456 Z M143.511737,65.6142976 L123.702303,65.6142976 L124.126034,62.754112 L143.935468,62.754112 L143.511737,65.6142976 Z M124.3379,60.635456 L123.702303,60.635456 L124.126034,57.7752704 L124.761631,57.7752704 L124.3379,60.635456 Z M144.359199,70.4872064 L124.761631,70.4872064 L125.185362,67.7329536 L144.78293,67.7329536 L144.359199,70.4872064 Z M158.448262,85.3177984 L138.109164,85.3177984 L138.638828,82.5635456 L158.871993,82.5635456 L158.448262,85.3177984 Z M146.901586,75.466048 L126.24469,75.466048 L126.774354,72.6058624 L147.43125,72.6058624 L146.901586,75.466048 Z M138.109164,80.4448896 L130.37607,80.4448896 L130.799801,77.584704 L138.638828,77.584704 L138.109164,80.4448896 Z M242.60185,46.1226624 L225.652602,46.1226624 L226.076334,43.3684096 L243.025582,43.3684096 L242.60185,46.1226624 Z M245.25017,51.101504 L232.432302,51.101504 L232.961966,48.2413184 L245.673902,48.2413184 L245.25017,51.101504 Z M228.512788,36.270912 L212.093204,36.270912 L212.516935,33.4107264 L228.936519,33.4107264 L228.512788,36.270912 Z M238.576404,41.2497536 L210.716078,41.2497536 L211.245742,38.389568 L239.000135,38.389568 L238.576404,41.2497536 Z M245.25017,56.0803456 L227.135662,56.0803456 L227.559393,53.22016 L245.673902,53.22016 L245.25017,56.0803456 Z M232.432302,51.101504 L226.288199,51.101504 L226.71193,48.2413184 L232.961966,48.2413184 L232.432302,51.101504 Z M210.716078,41.2497536 L198.957537,41.2497536 L199.487201,38.389568 L211.245742,38.389568 L210.716078,41.2497536 Z M225.652602,46.1226624 L193.131233,46.1226624 L193.660897,43.3684096 L226.076334,43.3684096 L225.652602,46.1226624 Z M242.919649,70.9109376 L224.911073,70.9109376 L225.334804,68.050752 L243.34338,68.050752 L242.919649,70.9109376 Z M240.589127,75.7838464 L220.885626,75.7838464 L221.309358,73.0295936 L241.012858,73.0295936 L240.589127,75.7838464 Z M207.220295,56.0803456 L205.949102,56.0803456 L206.372833,53.22016 L207.644026,53.22016 L207.220295,56.0803456 Z M210.504212,51.101504 L191.11851,51.101504 L191.542241,48.2413184 L210.927943,48.2413184 L210.504212,51.101504 Z M205.949102,56.0803456 L186.669332,56.0803456 L187.198996,53.22016 L206.372833,53.22016 L205.949102,56.0803456 Z M191.11851,51.101504 L188.999854,51.101504 L189.529518,48.2413184 L191.542241,48.2413184 L191.11851,51.101504 Z M237.30521,80.762688 L199.169402,80.762688 L199.699066,77.9025024 L237.728942,77.9025024 L237.30521,80.762688 Z M205.52537,60.9532544 L185.186273,60.9532544 L185.610004,58.1990016 L206.055034,58.1990016 L205.52537,60.9532544 Z M205.631303,65.932096 L188.364257,65.932096 L188.787988,63.0719104 L206.160967,63.0719104 L205.631303,65.932096 Z M231.478906,85.7415296 L200.22873,85.7415296 L200.652462,82.881344 L231.902638,82.881344 L231.478906,85.7415296 Z M205.631303,70.9109376 L184.33881,70.9109376 L184.762542,68.050752 L206.160967,68.050752 L205.631303,70.9109376 Z M188.364257,65.932096 L184.33881,65.932096 L184.762542,63.0719104 L188.787988,63.0719104 L188.364257,65.932096 Z M207.326228,75.7838464 L185.292206,75.7838464 L185.715937,73.0295936 L207.749959,73.0295936 L207.326228,75.7838464 Z M199.169402,80.762688 L187.834593,80.762688 L188.258324,77.9025024 L199.699066,77.9025024 L199.169402,80.762688 Z M200.22873,85.7415296 L191.965972,85.7415296 L192.389703,82.881344 L200.652462,82.881344 L200.22873,85.7415296 Z M303.873955,41.2497536 L284.911983,41.2497536 L285.441647,38.389568 L304.297686,38.389568 L303.873955,41.2497536 Z M298.153583,46.1226624 L279.403478,46.1226624 L279.827209,43.3684096 L298.577315,43.3684096 L298.153583,46.1226624 Z M267.327139,26.4191616 L263.301692,26.4191616 L263.725423,23.558976 L267.75087,23.558976 L267.327139,26.4191616 Z M268.068668,21.44032 L250.907555,21.44032 L251.331286,18.5801344 L268.492399,18.5801344 L268.068668,21.44032 Z M292.327279,51.101504 L286.28911,51.101504 L286.712841,48.2413184 L292.751011,48.2413184 L292.327279,51.101504 Z M263.301692,26.4191616 L250.166025,26.4191616 L250.695689,23.558976 L263.725423,23.558976 L263.301692,26.4191616 Z M266.585609,31.2920704 L256.839791,31.2920704 L257.263523,28.5378176 L267.115273,28.5378176 L266.585609,31.2920704 Z M286.28911,51.101504 L273.471241,51.101504 L273.894972,48.2413184 L286.712841,48.2413184 L286.28911,51.101504 Z M265.844079,36.270912 L261.500835,36.270912 L261.924566,33.4107264 L266.267811,33.4107264 L265.844079,36.270912 Z M265.10255,41.2497536 L264.572886,41.2497536 L264.996617,38.389568 L265.526281,38.389568 L265.10255,41.2497536 Z M256.839791,31.2920704 L249.318563,31.2920704 L249.742294,28.5378176 L257.263523,28.5378176 L256.839791,31.2920704 Z M290.84422,60.9532544 L275.483964,60.9532544 L275.907695,58.1990016 L291.373884,58.1990016 L290.84422,60.9532544 Z M288.301833,56.0803456 L266.797475,56.0803456 L267.327139,53.22016 L288.725564,53.22016 L288.301833,56.0803456 Z M292.433212,65.932096 L283.534857,65.932096 L283.958588,63.0719104 L292.856943,63.0719104 L292.433212,65.932096 Z M261.500835,36.270912 L248.682966,36.270912 L249.106697,33.4107264 L261.924566,33.4107264 L261.500835,36.270912 Z M264.572886,41.2497536 L247.729571,41.2497536 L248.153302,38.389568 L264.996617,38.389568 L264.572886,41.2497536 Z M299.212911,80.762688 L294.340003,80.762688 L294.763734,77.9025024 L299.742575,77.9025024 L299.212911,80.762688 Z M295.081532,70.9109376 L274.424636,70.9109376 L274.848367,68.050752 L295.611196,68.050752 L295.081532,70.9109376 Z M300.907836,85.7415296 L295.399331,85.7415296 L295.823062,82.881344 L301.331567,82.881344 L300.907836,85.7415296 Z M264.149155,46.1226624 L246.988041,46.1226624 L247.411772,43.3684096 L264.572886,43.3684096 L264.149155,46.1226624 Z M296.670524,75.7838464 L276.119561,75.7838464 L276.543292,73.0295936 L297.094255,73.0295936 L296.670524,75.7838464 Z M262.560163,56.0803456 L259.699977,56.0803456 L260.229641,53.22016 L262.983894,53.22016 L262.560163,56.0803456 Z M263.407625,51.101504 L246.140579,51.101504 L246.670243,48.2413184 L263.831356,48.2413184 L263.407625,51.101504 Z M294.340003,80.762688 L277.814486,80.762688 L278.238217,77.9025024 L294.763734,77.9025024 L294.340003,80.762688 Z M295.399331,85.7415296 L280.462806,85.7415296 L280.99247,82.881344 L295.823062,82.881344 L295.399331,85.7415296 Z M275.483964,60.9532544 L244.657519,60.9532544 L245.081251,58.1990016 L275.907695,58.1990016 L275.483964,60.9532544 Z M283.534857,65.932096 L243.810057,65.932096 L244.233788,63.0719104 L283.958588,63.0719104 L283.534857,65.932096 Z M259.699977,56.0803456 L245.399049,56.0803456 L245.82278,53.22016 L260.229641,53.22016 L259.699977,56.0803456 Z M266.055945,70.9109376 L262.560163,70.9109376 L262.983894,68.050752 L266.479676,68.050752 L266.055945,70.9109376 Z M262.560163,70.9109376 L243.068527,70.9109376 L243.492259,68.050752 L262.983894,68.050752 L262.560163,70.9109376 Z M260.335574,75.7838464 L242.221065,75.7838464 L242.750729,73.0295936 L260.759305,73.0295936 L260.335574,75.7838464 Z M258.746582,80.762688 L253.026211,80.762688 L253.449942,77.9025024 L259.276246,77.9025024 L258.746582,80.762688 Z M257.899119,85.7415296 L253.979606,85.7415296 L254.50927,82.881344 L258.322851,82.881344 L257.899119,85.7415296 Z M253.026211,80.762688 L241.479535,80.762688 L241.903267,77.9025024 L253.449942,77.9025024 L253.026211,80.762688 Z M253.979606,85.7415296 L240.843939,85.7415296 L241.26767,82.881344 L254.50927,82.881344 L253.979606,85.7415296 Z" id="path-1"></path>
        <path d="M107.332098,26.4191616 L99.7049366,26.4191616 L100.234601,23.558976 L107.861762,23.558976 L107.332098,26.4191616 Z M103.200719,21.44032 L89.8531862,21.44032 L90.2769174,18.5801344 L103.730383,18.5801344 L103.200719,21.44032 Z M109.132956,31.2920704 L101.187996,31.2920704 L101.611727,28.5378176 L109.66262,28.5378176 L109.132956,31.2920704 Z M89.959119,16.4614784 L87.4167318,16.4614784 L87.840463,13.7072256 L90.3828502,13.7072256 L89.959119,16.4614784 Z M101.187996,31.2920704 L87.6285974,31.2920704 L88.0523286,28.5378176 L101.611727,28.5378176 L101.187996,31.2920704 Z M87.4167318,16.4614784 L69.302223,16.4614784 L69.7259542,13.7072256 L87.840463,13.7072256 L87.4167318,16.4614784 Z M99.7049366,26.4191616 L58.3911446,26.4191616 L58.8148758,23.558976 L100.234601,23.558976 L99.7049366,26.4191616 Z M89.8531862,21.44032 L55.3190934,21.44032 L55.7428246,18.5801344 L90.2769174,18.5801344 L89.8531862,21.44032 Z M101.823593,51.101504 L96.2091542,51.101504 L96.6328854,48.2413184 L102.247324,48.2413184 L101.823593,51.101504 Z M106.060905,56.0803456 L100.234601,56.0803456 L100.658332,53.22016 L106.484636,53.22016 L106.060905,56.0803456 Z M106.908367,60.9532544 L102.141391,60.9532544 L102.565122,58.1990016 L107.332098,58.1990016 L106.908367,60.9532544 Z M67.713231,31.2920704 L59.768271,31.2920704 L60.297935,28.5378176 L68.1369622,28.5378176 L67.713231,31.2920704 Z M58.3911446,26.4191616 L50.3402518,26.4191616 L50.8699158,23.558976 L58.8148758,23.558976 L58.3911446,26.4191616 Z M106.060905,65.932096 L85.5099414,65.932096 L85.9336726,63.0719104 L106.484636,63.0719104 L106.060905,65.932096 Z M94.3023638,46.1226624 L53.941967,46.1226624 L54.3656982,43.3684096 L94.726095,43.3684096 L94.3023638,46.1226624 Z M102.141391,60.9532544 L77.247183,60.9532544 L77.6709142,58.1990016 L102.565122,58.1990016 L102.141391,60.9532544 Z M65.3827094,36.270912 L58.2852118,36.270912 L58.708943,33.4107264 L65.8064406,33.4107264 L65.3827094,36.270912 Z M96.2091542,51.101504 L54.8953622,51.101504 L55.3190934,48.2413184 L96.6328854,48.2413184 L96.2091542,51.101504 Z M59.768271,31.2920704 L47.1622678,31.2920704 L47.585999,28.5378176 L60.297935,28.5378176 L59.768271,31.2920704 Z M100.234601,56.0803456 L58.8148758,56.0803456 L59.3445398,53.22016 L100.658332,53.22016 L100.234601,56.0803456 Z M104.471913,70.9109376 L85.6158742,70.9109376 L86.0396054,68.050752 L104.895644,68.050752 L104.471913,70.9109376 Z M73.6454678,41.2497536 L46.7385366,41.2497536 L47.1622678,38.389568 L74.069199,38.389568 L73.6454678,41.2497536 Z M58.2852118,36.270912 L44.7258134,36.270912 L45.1495446,33.4107264 L58.708943,33.4107264 L58.2852118,36.270912 Z M101.187996,75.7838464 L82.6497558,75.7838464 L83.073487,73.0295936 L101.71766,73.0295936 L101.187996,75.7838464 Z M85.6158742,70.9109376 L83.8150166,70.9109376 L84.2387478,68.050752 L86.0396054,68.050752 L85.6158742,70.9109376 Z M96.315087,80.762688 L93.4549014,80.762688 L93.8786326,77.9025024 L96.7388182,77.9025024 L96.315087,80.762688 Z M46.7385366,41.2497536 L43.878351,41.2497536 L44.3020822,38.389568 L47.1622678,38.389568 L46.7385366,41.2497536 Z M53.941967,46.1226624 L44.8317462,46.1226624 L45.2554774,43.3684096 L54.3656982,43.3684096 L53.941967,46.1226624 Z M58.8148758,56.0803456 L57.3318166,56.0803456 L57.7555478,53.22016 L59.3445398,53.22016 L58.8148758,56.0803456 Z M54.8953622,51.101504 L48.115663,51.101504 L48.645327,48.2413184 L55.3190934,48.2413184 L54.8953622,51.101504 Z M93.4549014,80.762688 L52.1411094,80.762688 L52.5648406,77.9025024 L93.8786326,77.9025024 L93.4549014,80.762688 Z M82.6497558,75.7838464 L41.230031,75.7838464 L41.6537622,73.0295936 L83.073487,73.0295936 L82.6497558,75.7838464 Z M87.2048662,85.7415296 L49.3868566,85.7415296 L49.8105878,82.881344 L87.7345302,82.881344 L87.2048662,85.7415296 Z M57.4377494,70.9109376 L44.1961494,70.9109376 L44.7258134,68.050752 L57.8614806,68.050752 L57.4377494,70.9109376 Z M44.1961494,70.9109376 L34.2384662,70.9109376 L34.7681302,68.050752 L44.7258134,68.050752 L44.1961494,70.9109376 Z M52.1411094,80.762688 L41.0181654,80.762688 L41.4418966,77.9025024 L52.5648406,77.9025024 L52.1411094,80.762688 Z M41.230031,75.7838464 L37.6283158,75.7838464 L38.052047,73.0295936 L41.6537622,73.0295936 L41.230031,75.7838464 Z M143.392196,21.1225216 L135.659101,21.1225216 L136.082833,18.262336 L143.815927,18.262336 L143.392196,21.1225216 Z M142.756599,25.9954304 L140.426077,25.9954304 L140.849809,23.2411776 L143.18033,23.2411776 L142.756599,25.9954304 Z M135.659101,21.1225216 L126.442948,21.1225216 L126.972612,18.262336 L136.082833,18.262336 L135.659101,21.1225216 Z M140.426077,25.9954304 L125.489553,25.9954304 L125.913284,23.2411776 L140.849809,23.2411776 L140.426077,25.9954304 Z M141.697271,30.974272 L126.231082,30.974272 L126.654813,28.1140864 L142.121002,28.1140864 L141.697271,30.974272 Z M153.455812,40.8260224 L131.633655,40.8260224 L132.057386,38.0717696 L153.879543,38.0717696 L153.455812,40.8260224 Z M154.409207,35.9531136 L113.942877,35.9531136 L114.366609,33.092928 L154.832938,33.092928 L154.409207,35.9531136 Z M126.231082,30.974272 L123.900561,30.974272 L124.324292,28.1140864 L126.654813,28.1140864 L126.231082,30.974272 Z M152.926148,45.804864 L125.807351,45.804864 L126.231082,42.9446784 L153.349879,42.9446784 L152.926148,45.804864 Z M131.633655,40.8260224 L110.976759,40.8260224 L111.40049,38.0717696 L132.057386,38.0717696 L131.633655,40.8260224 Z M138.62522,50.7837056 L119.34545,50.7837056 L119.769181,47.92352 L139.048951,47.92352 L138.62522,50.7837056 Z M113.942877,35.9531136 L111.718289,35.9531136 L112.14202,33.092928 L114.366609,33.092928 L113.942877,35.9531136 Z M125.807351,45.804864 L111.082692,45.804864 L111.506423,42.9446784 L126.231082,42.9446784 L125.807351,45.804864 Z M137.88369,55.6566144 L118.392055,55.6566144 L118.815786,52.9023616 L138.413354,52.9023616 L137.88369,55.6566144 Z M137.142161,60.635456 L125.595485,60.635456 L126.125149,57.7752704 L137.565892,57.7752704 L137.142161,60.635456 Z M148.265105,80.4448896 L139.472682,80.4448896 L139.896413,77.584704 L148.688836,77.584704 L148.265105,80.4448896 Z M125.595485,60.635456 L117.650525,60.635456 L118.074257,57.7752704 L126.125149,57.7752704 L125.595485,60.635456 Z M136.612497,65.6142976 L116.803063,65.6142976 L117.332727,62.754112 L137.036228,62.754112 L136.612497,65.6142976 Z M149.006634,75.466048 L117.120861,75.466048 L117.544593,72.6058624 L149.430365,72.6058624 L149.006634,75.466048 Z M135.553169,70.4872064 L116.167466,70.4872064 L116.591197,67.7329536 L135.9769,67.7329536 L135.553169,70.4872064 Z M147.417642,85.3177984 L121.887837,85.3177984 L122.311569,82.5635456 L147.841373,82.5635456 L147.417642,85.3177984 Z M139.472682,80.4448896 L116.908996,80.4448896 L117.43866,77.584704 L139.896413,77.584704 L139.472682,80.4448896 Z M117.120861,75.466048 L116.061533,75.466048 L116.485265,72.6058624 L117.544593,72.6058624 L117.120861,75.466048 Z M207.842284,40.8260224 L199.049862,40.8260224 L199.473593,38.0717696 L208.266015,38.0717696 L207.842284,40.8260224 Z M211.020268,45.804864 L193.223558,45.804864 L193.647289,42.9446784 L211.549932,42.9446784 L211.020268,45.804864 Z M201.910047,35.9531136 L181.253151,35.9531136 L181.676882,33.092928 L202.333778,33.092928 L201.910047,35.9531136 Z M212.715193,50.7837056 L193.117625,50.7837056 L193.541356,47.92352 L213.138924,47.92352 L212.715193,50.7837056 Z M193.223558,45.804864 L192.16423,45.804864 L192.693894,42.9446784 L193.647289,42.9446784 L193.223558,45.804864 Z M212.821126,55.6566144 L193.223558,55.6566144 L193.647289,52.9023616 L213.35079,52.9023616 L212.821126,55.6566144 Z M212.927058,60.635456 L193.117625,60.635456 L193.541356,57.7752704 L213.456722,57.7752704 L212.927058,60.635456 Z M181.253151,35.9531136 L169.812409,35.9531136 L170.342073,33.092928 L181.676882,33.092928 L181.253151,35.9531136 Z M199.049862,40.8260224 L162.503046,40.8260224 L162.926777,38.0717696 L199.473593,38.0717696 L199.049862,40.8260224 Z M211.232134,65.6142976 L191.740498,65.6142976 L192.270162,62.754112 L211.761798,62.754112 L211.232134,65.6142976 Z M193.117625,60.635456 L192.482028,60.635456 L192.905759,57.7752704 L193.541356,57.7752704 L193.117625,60.635456 Z M209.007545,70.4872064 L190.045574,70.4872064 L190.575238,67.7329536 L209.431276,67.7329536 L209.007545,70.4872064 Z M177.227705,45.804864 L157.524204,45.804864 L158.053868,42.9446784 L177.651436,42.9446784 L177.227705,45.804864 Z M205.723628,75.466048 L185.066732,75.466048 L185.490463,72.6058624 L206.147359,72.6058624 L205.723628,75.466048 Z M173.943788,50.7837056 L154.34622,50.7837056 L154.769951,47.92352 L174.367519,47.92352 L173.943788,50.7837056 Z M172.460729,55.6566144 L152.757228,55.6566144 L153.180959,52.9023616 L172.88446,52.9023616 L172.460729,55.6566144 Z M190.68117,85.3177984 L185.808262,85.3177984 L186.231993,82.5635456 L191.104902,82.5635456 L190.68117,85.3177984 Z M199.897324,80.4448896 L165.469164,80.4448896 L165.998828,77.584704 L200.321055,77.584704 L199.897324,80.4448896 Z M171.613266,60.635456 L151.6979,60.635456 L152.121631,57.7752704 L172.036998,57.7752704 L171.613266,60.635456 Z M170.871737,65.6142976 L151.062303,65.6142976 L151.486034,62.754112 L171.295468,62.754112 L170.871737,65.6142976 Z M151.6979,60.635456 L151.062303,60.635456 L151.486034,57.7752704 L152.121631,57.7752704 L151.6979,60.635456 Z M171.719199,70.4872064 L152.121631,70.4872064 L152.545362,67.7329536 L172.14293,67.7329536 L171.719199,70.4872064 Z M185.808262,85.3177984 L165.469164,85.3177984 L165.998828,82.5635456 L186.231993,82.5635456 L185.808262,85.3177984 Z M174.261586,75.466048 L153.60469,75.466048 L154.134354,72.6058624 L174.79125,72.6058624 L174.261586,75.466048 Z M165.469164,80.4448896 L157.73607,80.4448896 L158.159801,77.584704 L165.998828,77.584704 L165.469164,80.4448896 Z M269.96185,46.1226624 L253.012602,46.1226624 L253.436334,43.3684096 L270.385582,43.3684096 L269.96185,46.1226624 Z M272.61017,51.101504 L259.792302,51.101504 L260.321966,48.2413184 L273.033902,48.2413184 L272.61017,51.101504 Z M255.872788,36.270912 L239.453204,36.270912 L239.876935,33.4107264 L256.296519,33.4107264 L255.872788,36.270912 Z M265.936404,41.2497536 L238.076078,41.2497536 L238.605742,38.389568 L266.360135,38.389568 L265.936404,41.2497536 Z M272.61017,56.0803456 L254.495662,56.0803456 L254.919393,53.22016 L273.033902,53.22016 L272.61017,56.0803456 Z M259.792302,51.101504 L253.648199,51.101504 L254.07193,48.2413184 L260.321966,48.2413184 L259.792302,51.101504 Z M238.076078,41.2497536 L226.317537,41.2497536 L226.847201,38.389568 L238.605742,38.389568 L238.076078,41.2497536 Z M253.012602,46.1226624 L220.491233,46.1226624 L221.020897,43.3684096 L253.436334,43.3684096 L253.012602,46.1226624 Z M270.279649,70.9109376 L252.271073,70.9109376 L252.694804,68.050752 L270.70338,68.050752 L270.279649,70.9109376 Z M267.949127,75.7838464 L248.245626,75.7838464 L248.669358,73.0295936 L268.372858,73.0295936 L267.949127,75.7838464 Z M234.580295,56.0803456 L233.309102,56.0803456 L233.732833,53.22016 L235.004026,53.22016 L234.580295,56.0803456 Z M237.864212,51.101504 L218.47851,51.101504 L218.902241,48.2413184 L238.287943,48.2413184 L237.864212,51.101504 Z M233.309102,56.0803456 L214.029332,56.0803456 L214.558996,53.22016 L233.732833,53.22016 L233.309102,56.0803456 Z M218.47851,51.101504 L216.359854,51.101504 L216.889518,48.2413184 L218.902241,48.2413184 L218.47851,51.101504 Z M264.66521,80.762688 L226.529402,80.762688 L227.059066,77.9025024 L265.088942,77.9025024 L264.66521,80.762688 Z M232.88537,60.9532544 L212.546273,60.9532544 L212.970004,58.1990016 L233.415034,58.1990016 L232.88537,60.9532544 Z M232.991303,65.932096 L215.724257,65.932096 L216.147988,63.0719104 L233.520967,63.0719104 L232.991303,65.932096 Z M258.838906,85.7415296 L227.58873,85.7415296 L228.012462,82.881344 L259.262638,82.881344 L258.838906,85.7415296 Z M232.991303,70.9109376 L211.69881,70.9109376 L212.122542,68.050752 L233.520967,68.050752 L232.991303,70.9109376 Z M215.724257,65.932096 L211.69881,65.932096 L212.122542,63.0719104 L216.147988,63.0719104 L215.724257,65.932096 Z M234.686228,75.7838464 L212.652206,75.7838464 L213.075937,73.0295936 L235.109959,73.0295936 L234.686228,75.7838464 Z M226.529402,80.762688 L215.194593,80.762688 L215.618324,77.9025024 L227.059066,77.9025024 L226.529402,80.762688 Z M227.58873,85.7415296 L219.325972,85.7415296 L219.749703,82.881344 L228.012462,82.881344 L227.58873,85.7415296 Z M331.233955,41.2497536 L312.271983,41.2497536 L312.801647,38.389568 L331.657686,38.389568 L331.233955,41.2497536 Z M325.513583,46.1226624 L306.763478,46.1226624 L307.187209,43.3684096 L325.937315,43.3684096 L325.513583,46.1226624 Z M294.687139,26.4191616 L290.661692,26.4191616 L291.085423,23.558976 L295.11087,23.558976 L294.687139,26.4191616 Z M295.428668,21.44032 L278.267555,21.44032 L278.691286,18.5801344 L295.852399,18.5801344 L295.428668,21.44032 Z M319.687279,51.101504 L313.64911,51.101504 L314.072841,48.2413184 L320.111011,48.2413184 L319.687279,51.101504 Z M290.661692,26.4191616 L277.526025,26.4191616 L278.055689,23.558976 L291.085423,23.558976 L290.661692,26.4191616 Z M293.945609,31.2920704 L284.199791,31.2920704 L284.623523,28.5378176 L294.475273,28.5378176 L293.945609,31.2920704 Z M313.64911,51.101504 L300.831241,51.101504 L301.254972,48.2413184 L314.072841,48.2413184 L313.64911,51.101504 Z M293.204079,36.270912 L288.860835,36.270912 L289.284566,33.4107264 L293.627811,33.4107264 L293.204079,36.270912 Z M292.46255,41.2497536 L291.932886,41.2497536 L292.356617,38.389568 L292.886281,38.389568 L292.46255,41.2497536 Z M284.199791,31.2920704 L276.678563,31.2920704 L277.102294,28.5378176 L284.623523,28.5378176 L284.199791,31.2920704 Z M318.20422,60.9532544 L302.843964,60.9532544 L303.267695,58.1990016 L318.733884,58.1990016 L318.20422,60.9532544 Z M315.661833,56.0803456 L294.157475,56.0803456 L294.687139,53.22016 L316.085564,53.22016 L315.661833,56.0803456 Z M319.793212,65.932096 L310.894857,65.932096 L311.318588,63.0719104 L320.216943,63.0719104 L319.793212,65.932096 Z M288.860835,36.270912 L276.042966,36.270912 L276.466697,33.4107264 L289.284566,33.4107264 L288.860835,36.270912 Z M291.932886,41.2497536 L275.089571,41.2497536 L275.513302,38.389568 L292.356617,38.389568 L291.932886,41.2497536 Z M326.572911,80.762688 L321.700003,80.762688 L322.123734,77.9025024 L327.102575,77.9025024 L326.572911,80.762688 Z M322.441532,70.9109376 L301.784636,70.9109376 L302.208367,68.050752 L322.971196,68.050752 L322.441532,70.9109376 Z M328.267836,85.7415296 L322.759331,85.7415296 L323.183062,82.881344 L328.691567,82.881344 L328.267836,85.7415296 Z M291.509155,46.1226624 L274.348041,46.1226624 L274.771772,43.3684096 L291.932886,43.3684096 L291.509155,46.1226624 Z M324.030524,75.7838464 L303.479561,75.7838464 L303.903292,73.0295936 L324.454255,73.0295936 L324.030524,75.7838464 Z M289.920163,56.0803456 L287.059977,56.0803456 L287.589641,53.22016 L290.343894,53.22016 L289.920163,56.0803456 Z M290.767625,51.101504 L273.500579,51.101504 L274.030243,48.2413184 L291.191356,48.2413184 L290.767625,51.101504 Z M321.700003,80.762688 L305.174486,80.762688 L305.598217,77.9025024 L322.123734,77.9025024 L321.700003,80.762688 Z M322.759331,85.7415296 L307.822806,85.7415296 L308.35247,82.881344 L323.183062,82.881344 L322.759331,85.7415296 Z M302.843964,60.9532544 L272.017519,60.9532544 L272.441251,58.1990016 L303.267695,58.1990016 L302.843964,60.9532544 Z M310.894857,65.932096 L271.170057,65.932096 L271.593788,63.0719104 L311.318588,63.0719104 L310.894857,65.932096 Z M287.059977,56.0803456 L272.759049,56.0803456 L273.18278,53.22016 L287.589641,53.22016 L287.059977,56.0803456 Z M293.415945,70.9109376 L289.920163,70.9109376 L290.343894,68.050752 L293.839676,68.050752 L293.415945,70.9109376 Z M289.920163,70.9109376 L270.428527,70.9109376 L270.852259,68.050752 L290.343894,68.050752 L289.920163,70.9109376 Z M287.695574,75.7838464 L269.581065,75.7838464 L270.110729,73.0295936 L288.119305,73.0295936 L287.695574,75.7838464 Z M286.106582,80.762688 L280.386211,80.762688 L280.809942,77.9025024 L286.636246,77.9025024 L286.106582,80.762688 Z M285.259119,85.7415296 L281.339606,85.7415296 L281.86927,82.881344 L285.682851,82.881344 L285.259119,85.7415296 Z M280.386211,80.762688 L268.839535,80.762688 L269.263267,77.9025024 L280.809942,77.9025024 L280.386211,80.762688 Z M281.339606,85.7415296 L268.203939,85.7415296 L268.62767,82.881344 L281.86927,82.881344 L281.339606,85.7415296 Z" id="path-2"></path>
    </defs>
    <g id="Page-1" stroke="none" stroke-width="1" fill="none" fill-rule="evenodd">
        <g id="00" transform="translate(-18.000000, -80.000000)" fill-rule="nonzero">
            <g id="logo" transform="translate(18.000000, 80.000000)">
                <g id="Stock">
                    <g opacity="0.318452381">
                        <use fill="#FFFFFF" xlink:href="#path-1"></use>
                        <use fill="#0E60FF" xlink:href="#path-1"></use>
                    </g>
                    <g opacity="0.318452381">
                        <use fill="#FFFFFF" xlink:href="#path-2"></use>
                        <use fill="#FF1616" xlink:href="#path-2"></use>
                    </g>
                    <path d="M94.5320982,26.4191616 L86.9049366,26.4191616 L87.4346006,23.558976 L95.0617622,23.558976 L94.5320982,26.4191616 Z M90.400719,21.44032 L77.0531862,21.44032 L77.4769174,18.5801344 L90.930383,18.5801344 L90.400719,21.44032 Z M96.3329558,31.2920704 L88.3879958,31.2920704 L88.811727,28.5378176 L96.8626198,28.5378176 L96.3329558,31.2920704 Z M77.159119,16.4614784 L74.6167318,16.4614784 L75.040463,13.7072256 L77.5828502,13.7072256 L77.159119,16.4614784 Z M88.3879958,31.2920704 L74.8285974,31.2920704 L75.2523286,28.5378176 L88.811727,28.5378176 L88.3879958,31.2920704 Z M74.6167318,16.4614784 L56.502223,16.4614784 L56.9259542,13.7072256 L75.040463,13.7072256 L74.6167318,16.4614784 Z M86.9049366,26.4191616 L45.5911446,26.4191616 L46.0148758,23.558976 L87.4346006,23.558976 L86.9049366,26.4191616 Z M77.0531862,21.44032 L42.5190934,21.44032 L42.9428246,18.5801344 L77.4769174,18.5801344 L77.0531862,21.44032 Z M89.0235926,51.101504 L83.4091542,51.101504 L83.8328854,48.2413184 L89.4473238,48.2413184 L89.0235926,51.101504 Z M93.2609046,56.0803456 L87.4346006,56.0803456 L87.8583318,53.22016 L93.6846358,53.22016 L93.2609046,56.0803456 Z M94.108367,60.9532544 L89.341391,60.9532544 L89.7651222,58.1990016 L94.5320982,58.1990016 L94.108367,60.9532544 Z M54.913231,31.2920704 L46.968271,31.2920704 L47.497935,28.5378176 L55.3369622,28.5378176 L54.913231,31.2920704 Z M45.5911446,26.4191616 L37.5402518,26.4191616 L38.0699158,23.558976 L46.0148758,23.558976 L45.5911446,26.4191616 Z M93.2609046,65.932096 L72.7099414,65.932096 L73.1336726,63.0719104 L93.6846358,63.0719104 L93.2609046,65.932096 Z M81.5023638,46.1226624 L41.141967,46.1226624 L41.5656982,43.3684096 L81.926095,43.3684096 L81.5023638,46.1226624 Z M89.341391,60.9532544 L64.447183,60.9532544 L64.8709142,58.1990016 L89.7651222,58.1990016 L89.341391,60.9532544 Z M52.5827094,36.270912 L45.4852118,36.270912 L45.908943,33.4107264 L53.0064406,33.4107264 L52.5827094,36.270912 Z M83.4091542,51.101504 L42.0953622,51.101504 L42.5190934,48.2413184 L83.8328854,48.2413184 L83.4091542,51.101504 Z M46.968271,31.2920704 L34.3622678,31.2920704 L34.785999,28.5378176 L47.497935,28.5378176 L46.968271,31.2920704 Z M87.4346006,56.0803456 L46.0148758,56.0803456 L46.5445398,53.22016 L87.8583318,53.22016 L87.4346006,56.0803456 Z M91.6719126,70.9109376 L72.8158742,70.9109376 L73.2396054,68.050752 L92.0956438,68.050752 L91.6719126,70.9109376 Z M60.8454678,41.2497536 L33.9385366,41.2497536 L34.3622678,38.389568 L61.269199,38.389568 L60.8454678,41.2497536 Z M45.4852118,36.270912 L31.9258134,36.270912 L32.3495446,33.4107264 L45.908943,33.4107264 L45.4852118,36.270912 Z M88.3879958,75.7838464 L69.8497558,75.7838464 L70.273487,73.0295936 L88.9176598,73.0295936 L88.3879958,75.7838464 Z M72.8158742,70.9109376 L71.0150166,70.9109376 L71.4387478,68.050752 L73.2396054,68.050752 L72.8158742,70.9109376 Z M83.515087,80.762688 L80.6549014,80.762688 L81.0786326,77.9025024 L83.9388182,77.9025024 L83.515087,80.762688 Z M33.9385366,41.2497536 L31.078351,41.2497536 L31.5020822,38.389568 L34.3622678,38.389568 L33.9385366,41.2497536 Z M41.141967,46.1226624 L32.0317462,46.1226624 L32.4554774,43.3684096 L41.5656982,43.3684096 L41.141967,46.1226624 Z M46.0148758,56.0803456 L44.5318166,56.0803456 L44.9555478,53.22016 L46.5445398,53.22016 L46.0148758,56.0803456 Z M42.0953622,51.101504 L35.315663,51.101504 L35.845327,48.2413184 L42.5190934,48.2413184 L42.0953622,51.101504 Z M80.6549014,80.762688 L39.3411094,80.762688 L39.7648406,77.9025024 L81.0786326,77.9025024 L80.6549014,80.762688 Z M69.8497558,75.7838464 L28.430031,75.7838464 L28.8537622,73.0295936 L70.273487,73.0295936 L69.8497558,75.7838464 Z M74.4048662,85.7415296 L36.5868566,85.7415296 L37.0105878,82.881344 L74.9345302,82.881344 L74.4048662,85.7415296 Z M44.6377494,70.9109376 L31.3961494,70.9109376 L31.9258134,68.050752 L45.0614806,68.050752 L44.6377494,70.9109376 Z M31.3961494,70.9109376 L21.4384662,70.9109376 L21.9681302,68.050752 L31.9258134,68.050752 L31.3961494,70.9109376 Z M39.3411094,80.762688 L28.2181654,80.762688 L28.6418966,77.9025024 L39.7648406,77.9025024 L39.3411094,80.762688 Z M28.430031,75.7838464 L24.8283158,75.7838464 L25.252047,73.0295936 L28.8537622,73.0295936 L28.430031,75.7838464 Z M130.592196,21.1225216 L122.859101,21.1225216 L123.282833,18.262336 L131.015927,18.262336 L130.592196,21.1225216 Z M129.956599,25.9954304 L127.626077,25.9954304 L128.049809,23.2411776 L130.38033,23.2411776 L129.956599,25.9954304 Z M122.859101,21.1225216 L113.642948,21.1225216 L114.172612,18.262336 L123.282833,18.262336 L122.859101,21.1225216 Z M127.626077,25.9954304 L112.689553,25.9954304 L113.113284,23.2411776 L128.049809,23.2411776 L127.626077,25.9954304 Z M128.897271,30.974272 L113.431082,30.974272 L113.854813,28.1140864 L129.321002,28.1140864 L128.897271,30.974272 Z M140.655812,40.8260224 L118.833655,40.8260224 L119.257386,38.0717696 L141.079543,38.0717696 L140.655812,40.8260224 Z M141.609207,35.9531136 L101.142877,35.9531136 L101.566609,33.092928 L142.032938,33.092928 L141.609207,35.9531136 Z M113.431082,30.974272 L111.100561,30.974272 L111.524292,28.1140864 L113.854813,28.1140864 L113.431082,30.974272 Z M140.126148,45.804864 L113.007351,45.804864 L113.431082,42.9446784 L140.549879,42.9446784 L140.126148,45.804864 Z M118.833655,40.8260224 L98.1767591,40.8260224 L98.6004903,38.0717696 L119.257386,38.0717696 L118.833655,40.8260224 Z M125.82522,50.7837056 L106.54545,50.7837056 L106.969181,47.92352 L126.248951,47.92352 L125.82522,50.7837056 Z M101.142877,35.9531136 L98.9182887,35.9531136 L99.3420199,33.092928 L101.566609,33.092928 L101.142877,35.9531136 Z M113.007351,45.804864 L98.2826919,45.804864 L98.7064231,42.9446784 L113.431082,42.9446784 L113.007351,45.804864 Z M125.08369,55.6566144 L105.592055,55.6566144 L106.015786,52.9023616 L125.613354,52.9023616 L125.08369,55.6566144 Z M124.342161,60.635456 L112.795485,60.635456 L113.325149,57.7752704 L124.765892,57.7752704 L124.342161,60.635456 Z M135.465105,80.4448896 L126.672682,80.4448896 L127.096413,77.584704 L135.888836,77.584704 L135.465105,80.4448896 Z M112.795485,60.635456 L104.850525,60.635456 L105.274257,57.7752704 L113.325149,57.7752704 L112.795485,60.635456 Z M123.812497,65.6142976 L104.003063,65.6142976 L104.532727,62.754112 L124.236228,62.754112 L123.812497,65.6142976 Z M136.206634,75.466048 L104.320861,75.466048 L104.744593,72.6058624 L136.630365,72.6058624 L136.206634,75.466048 Z M122.753169,70.4872064 L103.367466,70.4872064 L103.791197,67.7329536 L123.1769,67.7329536 L122.753169,70.4872064 Z M134.617642,85.3177984 L109.087837,85.3177984 L109.511569,82.5635456 L135.041373,82.5635456 L134.617642,85.3177984 Z M126.672682,80.4448896 L104.108996,80.4448896 L104.63866,77.584704 L127.096413,77.584704 L126.672682,80.4448896 Z M104.320861,75.466048 L103.261533,75.466048 L103.685265,72.6058624 L104.744593,72.6058624 L104.320861,75.466048 Z M195.042284,40.8260224 L186.249862,40.8260224 L186.673593,38.0717696 L195.466015,38.0717696 L195.042284,40.8260224 Z M198.220268,45.804864 L180.423558,45.804864 L180.847289,42.9446784 L198.749932,42.9446784 L198.220268,45.804864 Z M189.110047,35.9531136 L168.453151,35.9531136 L168.876882,33.092928 L189.533778,33.092928 L189.110047,35.9531136 Z M199.915193,50.7837056 L180.317625,50.7837056 L180.741356,47.92352 L200.338924,47.92352 L199.915193,50.7837056 Z M180.423558,45.804864 L179.36423,45.804864 L179.893894,42.9446784 L180.847289,42.9446784 L180.423558,45.804864 Z M200.021126,55.6566144 L180.423558,55.6566144 L180.847289,52.9023616 L200.55079,52.9023616 L200.021126,55.6566144 Z M200.127058,60.635456 L180.317625,60.635456 L180.741356,57.7752704 L200.656722,57.7752704 L200.127058,60.635456 Z M168.453151,35.9531136 L157.012409,35.9531136 L157.542073,33.092928 L168.876882,33.092928 L168.453151,35.9531136 Z M186.249862,40.8260224 L149.703046,40.8260224 L150.126777,38.0717696 L186.673593,38.0717696 L186.249862,40.8260224 Z M198.432134,65.6142976 L178.940498,65.6142976 L179.470162,62.754112 L198.961798,62.754112 L198.432134,65.6142976 Z M180.317625,60.635456 L179.682028,60.635456 L180.105759,57.7752704 L180.741356,57.7752704 L180.317625,60.635456 Z M196.207545,70.4872064 L177.245574,70.4872064 L177.775238,67.7329536 L196.631276,67.7329536 L196.207545,70.4872064 Z M164.427705,45.804864 L144.724204,45.804864 L145.253868,42.9446784 L164.851436,42.9446784 L164.427705,45.804864 Z M192.923628,75.466048 L172.266732,75.466048 L172.690463,72.6058624 L193.347359,72.6058624 L192.923628,75.466048 Z M161.143788,50.7837056 L141.54622,50.7837056 L141.969951,47.92352 L161.567519,47.92352 L161.143788,50.7837056 Z M159.660729,55.6566144 L139.957228,55.6566144 L140.380959,52.9023616 L160.08446,52.9023616 L159.660729,55.6566144 Z M177.88117,85.3177984 L173.008262,85.3177984 L173.431993,82.5635456 L178.304902,82.5635456 L177.88117,85.3177984 Z M187.097324,80.4448896 L152.669164,80.4448896 L153.198828,77.584704 L187.521055,77.584704 L187.097324,80.4448896 Z M158.813266,60.635456 L138.8979,60.635456 L139.321631,57.7752704 L159.236998,57.7752704 L158.813266,60.635456 Z M158.071737,65.6142976 L138.262303,65.6142976 L138.686034,62.754112 L158.495468,62.754112 L158.071737,65.6142976 Z M138.8979,60.635456 L138.262303,60.635456 L138.686034,57.7752704 L139.321631,57.7752704 L138.8979,60.635456 Z M158.919199,70.4872064 L139.321631,70.4872064 L139.745362,67.7329536 L159.34293,67.7329536 L158.919199,70.4872064 Z M173.008262,85.3177984 L152.669164,85.3177984 L153.198828,82.5635456 L173.431993,82.5635456 L173.008262,85.3177984 Z M161.461586,75.466048 L140.80469,75.466048 L141.334354,72.6058624 L161.99125,72.6058624 L161.461586,75.466048 Z M152.669164,80.4448896 L144.93607,80.4448896 L145.359801,77.584704 L153.198828,77.584704 L152.669164,80.4448896 Z M257.16185,46.1226624 L240.212602,46.1226624 L240.636334,43.3684096 L257.585582,43.3684096 L257.16185,46.1226624 Z M259.81017,51.101504 L246.992302,51.101504 L247.521966,48.2413184 L260.233902,48.2413184 L259.81017,51.101504 Z M243.072788,36.270912 L226.653204,36.270912 L227.076935,33.4107264 L243.496519,33.4107264 L243.072788,36.270912 Z M253.136404,41.2497536 L225.276078,41.2497536 L225.805742,38.389568 L253.560135,38.389568 L253.136404,41.2497536 Z M259.81017,56.0803456 L241.695662,56.0803456 L242.119393,53.22016 L260.233902,53.22016 L259.81017,56.0803456 Z M246.992302,51.101504 L240.848199,51.101504 L241.27193,48.2413184 L247.521966,48.2413184 L246.992302,51.101504 Z M225.276078,41.2497536 L213.517537,41.2497536 L214.047201,38.389568 L225.805742,38.389568 L225.276078,41.2497536 Z M240.212602,46.1226624 L207.691233,46.1226624 L208.220897,43.3684096 L240.636334,43.3684096 L240.212602,46.1226624 Z M257.479649,70.9109376 L239.471073,70.9109376 L239.894804,68.050752 L257.90338,68.050752 L257.479649,70.9109376 Z M255.149127,75.7838464 L235.445626,75.7838464 L235.869358,73.0295936 L255.572858,73.0295936 L255.149127,75.7838464 Z M221.780295,56.0803456 L220.509102,56.0803456 L220.932833,53.22016 L222.204026,53.22016 L221.780295,56.0803456 Z M225.064212,51.101504 L205.67851,51.101504 L206.102241,48.2413184 L225.487943,48.2413184 L225.064212,51.101504 Z M220.509102,56.0803456 L201.229332,56.0803456 L201.758996,53.22016 L220.932833,53.22016 L220.509102,56.0803456 Z M205.67851,51.101504 L203.559854,51.101504 L204.089518,48.2413184 L206.102241,48.2413184 L205.67851,51.101504 Z M251.86521,80.762688 L213.729402,80.762688 L214.259066,77.9025024 L252.288942,77.9025024 L251.86521,80.762688 Z M220.08537,60.9532544 L199.746273,60.9532544 L200.170004,58.1990016 L220.615034,58.1990016 L220.08537,60.9532544 Z M220.191303,65.932096 L202.924257,65.932096 L203.347988,63.0719104 L220.720967,63.0719104 L220.191303,65.932096 Z M246.038906,85.7415296 L214.78873,85.7415296 L215.212462,82.881344 L246.462638,82.881344 L246.038906,85.7415296 Z M220.191303,70.9109376 L198.89881,70.9109376 L199.322542,68.050752 L220.720967,68.050752 L220.191303,70.9109376 Z M202.924257,65.932096 L198.89881,65.932096 L199.322542,63.0719104 L203.347988,63.0719104 L202.924257,65.932096 Z M221.886228,75.7838464 L199.852206,75.7838464 L200.275937,73.0295936 L222.309959,73.0295936 L221.886228,75.7838464 Z M213.729402,80.762688 L202.394593,80.762688 L202.818324,77.9025024 L214.259066,77.9025024 L213.729402,80.762688 Z M214.78873,85.7415296 L206.525972,85.7415296 L206.949703,82.881344 L215.212462,82.881344 L214.78873,85.7415296 Z M318.433955,41.2497536 L299.471983,41.2497536 L300.001647,38.389568 L318.857686,38.389568 L318.433955,41.2497536 Z M312.713583,46.1226624 L293.963478,46.1226624 L294.387209,43.3684096 L313.137315,43.3684096 L312.713583,46.1226624 Z M281.887139,26.4191616 L277.861692,26.4191616 L278.285423,23.558976 L282.31087,23.558976 L281.887139,26.4191616 Z M282.628668,21.44032 L265.467555,21.44032 L265.891286,18.5801344 L283.052399,18.5801344 L282.628668,21.44032 Z M306.887279,51.101504 L300.84911,51.101504 L301.272841,48.2413184 L307.311011,48.2413184 L306.887279,51.101504 Z M277.861692,26.4191616 L264.726025,26.4191616 L265.255689,23.558976 L278.285423,23.558976 L277.861692,26.4191616 Z M281.145609,31.2920704 L271.399791,31.2920704 L271.823523,28.5378176 L281.675273,28.5378176 L281.145609,31.2920704 Z M300.84911,51.101504 L288.031241,51.101504 L288.454972,48.2413184 L301.272841,48.2413184 L300.84911,51.101504 Z M280.404079,36.270912 L276.060835,36.270912 L276.484566,33.4107264 L280.827811,33.4107264 L280.404079,36.270912 Z M279.66255,41.2497536 L279.132886,41.2497536 L279.556617,38.389568 L280.086281,38.389568 L279.66255,41.2497536 Z M271.399791,31.2920704 L263.878563,31.2920704 L264.302294,28.5378176 L271.823523,28.5378176 L271.399791,31.2920704 Z M305.40422,60.9532544 L290.043964,60.9532544 L290.467695,58.1990016 L305.933884,58.1990016 L305.40422,60.9532544 Z M302.861833,56.0803456 L281.357475,56.0803456 L281.887139,53.22016 L303.285564,53.22016 L302.861833,56.0803456 Z M306.993212,65.932096 L298.094857,65.932096 L298.518588,63.0719104 L307.416943,63.0719104 L306.993212,65.932096 Z M276.060835,36.270912 L263.242966,36.270912 L263.666697,33.4107264 L276.484566,33.4107264 L276.060835,36.270912 Z M279.132886,41.2497536 L262.289571,41.2497536 L262.713302,38.389568 L279.556617,38.389568 L279.132886,41.2497536 Z M313.772911,80.762688 L308.900003,80.762688 L309.323734,77.9025024 L314.302575,77.9025024 L313.772911,80.762688 Z M309.641532,70.9109376 L288.984636,70.9109376 L289.408367,68.050752 L310.171196,68.050752 L309.641532,70.9109376 Z M315.467836,85.7415296 L309.959331,85.7415296 L310.383062,82.881344 L315.891567,82.881344 L315.467836,85.7415296 Z M278.709155,46.1226624 L261.548041,46.1226624 L261.971772,43.3684096 L279.132886,43.3684096 L278.709155,46.1226624 Z M311.230524,75.7838464 L290.679561,75.7838464 L291.103292,73.0295936 L311.654255,73.0295936 L311.230524,75.7838464 Z M277.120163,56.0803456 L274.259977,56.0803456 L274.789641,53.22016 L277.543894,53.22016 L277.120163,56.0803456 Z M277.967625,51.101504 L260.700579,51.101504 L261.230243,48.2413184 L278.391356,48.2413184 L277.967625,51.101504 Z M308.900003,80.762688 L292.374486,80.762688 L292.798217,77.9025024 L309.323734,77.9025024 L308.900003,80.762688 Z M309.959331,85.7415296 L295.022806,85.7415296 L295.55247,82.881344 L310.383062,82.881344 L309.959331,85.7415296 Z M290.043964,60.9532544 L259.217519,60.9532544 L259.641251,58.1990016 L290.467695,58.1990016 L290.043964,60.9532544 Z M298.094857,65.932096 L258.370057,65.932096 L258.793788,63.0719104 L298.518588,63.0719104 L298.094857,65.932096 Z M274.259977,56.0803456 L259.959049,56.0803456 L260.38278,53.22016 L274.789641,53.22016 L274.259977,56.0803456 Z M280.615945,70.9109376 L277.120163,70.9109376 L277.543894,68.050752 L281.039676,68.050752 L280.615945,70.9109376 Z M277.120163,70.9109376 L257.628527,70.9109376 L258.052259,68.050752 L277.543894,68.050752 L277.120163,70.9109376 Z M274.895574,75.7838464 L256.781065,75.7838464 L257.310729,73.0295936 L275.319305,73.0295936 L274.895574,75.7838464 Z M273.306582,80.762688 L267.586211,80.762688 L268.009942,77.9025024 L273.836246,77.9025024 L273.306582,80.762688 Z M272.459119,85.7415296 L268.539606,85.7415296 L269.06927,82.881344 L272.882851,82.881344 L272.459119,85.7415296 Z M267.586211,80.762688 L256.039535,80.762688 L256.463267,77.9025024 L268.009942,77.9025024 L267.586211,80.762688 Z M268.539606,85.7415296 L255.403939,85.7415296 L255.82767,82.881344 L269.06927,82.881344 L268.539606,85.7415296 Z" fill="#FFFFFF"></path>
                </g>
            </g>
        </g>
    </g>
</svg>